<svg width="216" height="76" viewBox="0 0 216 76" fill="none" xmlns="http://www.w3.org/2000/svg">
<path d="M54.1023 1.49998C55.4323 2.82997 56.0973 4.54498 56.0973 6.64498C56.0973 8.39498 55.7123 10.18 54.9423 12L28.0623 75L26.9073 75.525L0.447266 1.49998H9.37227L31.3173 63.66L53.6823 12C54.4523 10.25 54.8373 8.42998 54.8373 6.53998C54.8373 4.64998 54.3123 3.17998 53.2623 2.12998L54.1023 1.49998Z" fill="white"/>
<path d="M54.2073 75H52.9473L84.3423 1.49998L85.4973 0.974976L111.957 75H103.032L94.8423 51.9H64.1823L54.2073 75ZM81.0873 12.84L64.6023 50.85H94.5273L81.0873 12.84Z" fill="white"/>
<path d="M161.339 75H121.439V1.49998H130.154V73.95H161.339V75Z" fill="white"/>
<path d="M213.678 1.49998V2.54997H180.603V34.05H211.263V35.1H180.603V73.95H215.988V75H171.888V1.49998H213.678Z" fill="white"/>
</svg>
