<?xml version="1.0" encoding="UTF-8"?>
<svg width="23px" height="23px" viewBox="0 0 23 23" version="1.1" xmlns="http://www.w3.org/2000/svg" xmlns:xlink="http://www.w3.org/1999/xlink">
    <title>icon-whatsapp</title>
    <g id="Page-1" stroke="none" stroke-width="1" fill="none" fill-rule="evenodd">
        <g id="icon-whatsapp" fill="#764C4A" fill-rule="nonzero">
            <path d="M19.0453,3.25499 C16.9503,1.155 14.1602,6.66133815e-16 11.1952,6.66133815e-16 C5.07509,6.66133815e-16 0.0950017,4.97999 0.0950017,11.1 C0.0950017,13.055 0.605011,14.965 1.57503,16.65 L0,22.4 L5.8851,20.855 C7.50513,21.74 9.33016,22.205 11.1902,22.205 L11.1952,22.205 C17.3103,22.205 22.4004,17.225 22.4004,11.105 C22.4004,8.13999 21.1404,5.35499 19.0453,3.25499 Z M11.1952,20.335 C9.53517,20.335 7.91014,19.89 6.49511,19.05 L6.16011,18.85 L2.67005,19.765 L3.60006,16.36 L3.38006,16.01 C2.45504,14.54 1.97003,12.845 1.97003,11.1 C1.97003,6.01499 6.11011,1.875 11.2002,1.875 C13.6652,1.875 15.9803,2.83499 17.7203,4.57999 C19.4603,6.32499 20.5304,8.64 20.5254174,11.105 C20.5254174,16.195 16.2803,20.335 11.1952,20.335 Z M16.2553,13.425 C15.9803,13.285 14.6153,12.615 14.3603,12.525 C14.1052,12.43 13.9202,12.385 13.7352,12.665 C13.5502,12.945 13.0202,13.565 12.8552,13.755 C12.6952,13.94 12.5302,13.965 12.2552,13.825 C10.6252,13.01 9.55517,12.37 8.48015,10.525 C8.19514,10.035 8.76515,10.07 9.29516,9.01 C9.38516,8.825 9.34016,8.665 9.27016,8.525 C9.20016,8.38499 8.64515,7.01999 8.41515,6.46499 C8.19014,5.92499 7.96014,5.99999 7.79014,5.98999 C7.63013,5.97999 7.44513,5.97999 7.26013,5.97999 C7.07512,5.97999 6.77512,6.04999 6.52011,6.32499 C6.26511,6.60499 5.5501,7.27499 5.5501,8.64 C5.5501,10.005 6.54511,11.325 6.68012,11.51 C6.82012,11.695 8.63515,14.495 11.4202,15.7 C13.1802,16.46 13.8702,16.525 14.7503,16.395 C15.2853,16.315 16.3903,15.725 16.6203,15.075 C16.8503,14.425 16.8503,13.87 16.7803,13.755 C16.7153,13.63 16.5303,13.56 16.2553,13.425 Z" id="Shape"></path>
        </g>
    </g>
</svg>