<svg width="237" height="49" viewBox="0 0 237 49" fill="none" xmlns="http://www.w3.org/2000/svg">
<path d="M7.77879 47.5708C6.64983 47.5708 6.08535 47.0063 6.08535 45.8774C6.08535 45.3398 6.38103 44.6947 6.97239 43.942C7.88631 42.7055 8.93463 40.9583 10.1173 38.7004C11.3538 36.3887 12.6709 33.5126 14.0687 30.0719C17.4556 21.8467 19.149 15.2611 19.149 10.3151C19.149 4.83161 16.9449 2.08985 12.5365 2.08985C9.52599 2.08985 7.05303 3.27257 5.11767 5.63801C3.45111 7.78841 2.61783 10.2076 2.61783 12.8956C2.61783 14.5084 3.02103 15.9868 3.82743 17.3308C4.63383 18.6211 5.92407 19.3199 7.69815 19.4275C8.18199 19.4275 8.42391 19.5619 8.42391 19.8307C8.42391 20.0457 8.20887 20.1532 7.77879 20.1532C5.52087 20.1532 3.80055 19.3468 2.61783 17.734C1.43511 16.0675 0.84375 14.1321 0.84375 11.9279C0.84375 8.91737 2.13399 6.28313 4.71447 4.02521C7.07991 1.92857 9.66039 0.880249 12.4559 0.880249C18.3695 0.880249 21.3263 4.67033 21.3263 12.2505C21.3263 14.5084 21.0306 17.0889 20.4393 19.9919C19.9017 22.895 18.9877 26.3894 17.6975 30.4751C18.4501 29.3999 19.2565 28.0291 20.1167 26.3625C21.0306 24.6422 22.0252 22.7875 23.1004 20.7983C24.2293 18.7555 25.4121 16.6857 26.6485 14.5891C27.2399 13.5676 27.8581 12.5999 28.5033 11.686C29.2021 10.7721 29.901 9.88505 30.5999 9.02489C31.9439 7.35833 33.3148 6.01433 34.7125 4.99289C36.1641 3.91769 37.6425 3.38009 39.1477 3.38009C41.0293 3.38009 42.2927 3.94457 42.9378 5.07353C43.6367 6.14873 43.9861 7.46585 43.9861 9.02489C43.9861 9.83129 43.9055 10.6646 43.7442 11.5247C43.6367 12.3311 43.5023 13.1375 43.341 13.9439C43.0722 15.0191 42.6959 16.2019 42.2121 17.4921C41.782 18.7286 41.2713 20.0995 40.6799 21.6047C41.7551 19.9919 43.0991 18.191 44.7119 16.2019C46.3785 14.2127 48.1257 12.3311 49.9535 10.5571C51.8351 8.72921 53.6092 7.33145 55.2757 6.36377C56.6735 5.50361 57.9369 5.07353 59.0658 5.07353C59.8185 5.07353 60.4367 5.31545 60.9205 5.79929C61.4044 6.28313 61.6463 7.06265 61.6463 8.13785C61.6463 8.56793 61.6194 9.02489 61.5657 9.50873C61.5119 9.99257 61.4044 10.4764 61.2431 10.9603C61.1356 11.3366 61.0281 11.7398 60.9205 12.1699C60.813 12.5462 60.7055 12.9225 60.598 13.2988C60.3292 14.6966 60.0066 16.1212 59.6303 17.5727C59.3077 18.9705 58.9583 20.3951 58.582 21.8467C58.2057 23.3519 57.91 24.8841 57.6949 26.4431C57.5337 28.0022 57.453 29.6419 57.453 31.3622C57.453 35.6092 58.6895 37.7327 61.1625 37.7327C63.4204 37.7327 65.5977 35.663 67.6943 31.5235C67.8556 31.2009 68.0706 31.0396 68.3394 31.0396C68.5007 31.0396 68.5813 31.1203 68.5813 31.2815H68.5007V31.6847C68.1244 32.5987 67.6674 33.5663 67.1298 34.5878C66.5922 35.5555 65.9471 36.4156 65.1945 37.1683C64.3343 38.0284 63.501 38.5929 62.6946 38.8617C61.942 39.0767 61.1893 39.1843 60.4367 39.1843C55.9209 39.1843 53.6629 36.2543 53.6629 30.3945C53.6629 29.4806 53.7973 28.1366 54.0661 26.3625C54.3887 24.5884 54.8725 22.3574 55.5177 19.6694C56.7541 14.6159 57.3724 11.6054 57.3724 10.6377C57.3724 10.1001 57.2649 9.67001 57.0498 9.34745C56.8885 9.02489 56.5122 8.86361 55.9209 8.86361C53.3941 8.86361 49.3353 12.8956 43.7442 20.9596C41.2713 24.5078 39.1209 27.8409 37.293 30.959C35.5189 34.0233 34.0943 36.8995 33.0191 39.5875C32.9653 39.8563 32.6697 39.9369 32.1321 39.8294C31.5945 39.6681 31.0837 39.4262 30.5999 39.1036C30.1161 38.7811 29.8741 38.4854 29.8741 38.2166V38.1359C30.9493 35.9318 31.8364 34.1846 32.5353 32.8943C33.2341 31.5503 33.8793 30.3676 34.4706 29.3462C35.062 28.271 35.6802 27.0614 36.3253 25.7174C36.9705 24.3196 37.7769 22.4918 38.7445 20.2339C39.2284 18.9974 39.766 17.3577 40.3573 15.3148C40.9487 13.2719 41.2444 11.3903 41.2444 9.67001C41.2444 8.43353 41.0025 7.43897 40.5186 6.68633C40.0885 5.93369 39.2821 5.55737 38.0994 5.55737C37.1855 5.55737 36.1372 6.01433 34.9545 6.92825C33.7717 7.94969 32.5621 9.26681 31.3257 10.8796C30.0892 12.4387 28.8796 14.1859 27.6969 16.1212C27.1055 17.0889 26.5141 18.0566 25.9228 19.0243C25.3314 19.9919 24.7669 20.9327 24.2293 21.8467C23.1541 23.7283 22.1596 25.4486 21.2457 27.0076C20.3855 28.5129 19.6866 29.6687 19.149 30.4751C18.1276 31.9267 17.133 33.6201 16.1653 35.5555C15.2514 37.4908 14.3106 39.3993 13.3429 41.2809C12.3753 43.1625 11.3538 44.7753 10.2786 46.1193C9.47223 47.087 8.63895 47.5708 7.77879 47.5708Z" fill="white"/>
<path d="M78.3923 14.3471C77.801 14.3471 77.2634 14.1321 76.7795 13.702C76.3494 13.2182 76.1344 12.6806 76.1344 12.0892C76.1344 11.4441 76.3494 10.9065 76.7795 10.4764C77.2634 10.0463 77.801 9.83129 78.3923 9.83129C79.0374 9.83129 79.575 10.0463 80.0051 10.4764C80.4352 10.9065 80.6502 11.4441 80.6502 12.0892C80.6502 12.6806 80.4352 13.2182 80.0051 13.702C79.575 14.1321 79.0374 14.3471 78.3923 14.3471ZM72.5056 38.4585C72.2906 38.4585 72.1024 38.4585 71.9411 38.4585C71.7798 38.4047 71.5917 38.351 71.3766 38.2972C70.3014 38.0822 69.495 37.4371 68.9574 36.3619C68.4198 35.2329 68.151 33.5663 68.151 31.3622C68.151 29.6956 68.6886 27.4646 69.7638 24.6691C70.3014 23.1638 70.9197 22.0348 71.6186 21.2822C72.1562 20.5833 72.7475 20.2339 73.3926 20.2339C73.6614 20.2339 73.9302 20.3683 74.199 20.6371C74.3066 20.7446 74.3603 20.9059 74.3603 21.1209C74.3603 21.4435 74.2528 21.7929 74.0378 22.1692L73.3926 23.7014C73.2851 23.9702 73.1507 24.2659 72.9894 24.5884C72.8282 24.911 72.6669 25.2873 72.5056 25.7174C71.1078 28.943 70.409 31.3353 70.409 32.8943C70.409 33.862 70.6509 34.7222 71.1347 35.4748C71.7261 36.2812 72.5325 36.6844 73.5539 36.6844C74.7366 36.6844 76 35.878 77.344 34.2652C77.7741 33.7276 78.1773 33.1363 78.5536 32.4911C78.9299 31.7923 79.2525 31.1471 79.5213 30.5558C79.6288 30.287 79.7632 30.1526 79.9245 30.1526C80.3008 30.1526 80.4083 30.4214 80.247 30.959C79.9245 31.7116 79.575 32.4643 79.1987 33.2169C78.8762 33.9158 78.473 34.5609 77.9891 35.1523C76.2688 37.3564 74.441 38.4585 72.5056 38.4585Z" fill="white"/>
<path d="M83.5268 44.0227C82.1291 44.0227 80.9732 43.5926 80.0593 42.7324C79.1991 41.8723 78.7691 40.7433 78.7691 39.3455C78.7691 37.9478 79.1185 36.7113 79.8174 35.6361C80.57 34.5609 81.5646 34.0233 82.8011 34.0233C83.2311 34.0233 83.4462 34.2115 83.4462 34.5878C83.4462 34.8566 83.1774 34.991 82.6398 34.991C81.8871 34.991 81.2689 35.4479 80.7851 36.3619C80.3012 37.2758 80.0593 38.0822 80.0593 38.7811C80.0593 39.695 80.4087 40.4207 81.1076 40.9583C81.8065 41.5497 82.586 41.8454 83.4462 41.8454C85.2203 41.8454 86.4567 41.2809 87.1556 40.1519C87.8545 38.9692 88.2039 37.5715 88.2039 35.9587C88.2039 35.0985 88.1233 34.2383 87.962 33.3782C87.8545 32.518 87.6663 31.6579 87.3975 30.7977C87.2363 30.1526 86.9137 29.3999 86.4299 28.5398C85.946 27.6259 85.4084 26.7388 84.8171 25.8787C84.2795 25.0185 83.7956 24.3734 83.3655 23.9433C82.7204 25.5023 82.0484 27.0883 81.3495 28.7011C80.7044 30.2601 80.0055 31.7385 79.2529 33.1363C79.1991 33.2975 79.0647 33.3782 78.8497 33.3782C78.4196 33.3782 78.2852 33.1631 78.4465 32.7331C78.6615 32.3567 78.8497 31.9804 79.011 31.6041C79.226 31.174 79.4679 30.6633 79.7367 30.0719L81.5108 26.2819C81.7796 25.6905 82.0215 25.0991 82.2366 24.5078C82.5054 23.9164 82.7473 23.3519 82.9623 22.8143C82.1022 21.7391 81.6721 20.3951 81.6721 18.7823C81.6721 18.0835 81.8065 17.4921 82.0753 17.0083C82.3979 16.4707 82.9086 16.2019 83.6075 16.2019C83.9838 16.2019 84.3601 16.4438 84.7364 16.9276C85.1665 17.4652 85.3009 18.3523 85.1396 19.5887C85.0859 19.8575 84.9515 20.3414 84.7364 21.0403C84.5751 21.6854 84.4407 22.1423 84.3332 22.4111C84.3332 22.6262 84.5483 23.0831 84.9783 23.782C85.4622 24.4271 85.9729 25.0991 86.5105 25.798C87.0481 26.4969 87.4244 26.9807 87.6395 27.2495C88.5534 28.486 89.306 29.9375 89.8974 31.6041C90.4887 33.2169 90.7844 34.8028 90.7844 36.3619C90.7844 38.351 90.2468 40.1251 89.1716 41.6841C88.0964 43.2431 86.2148 44.0227 83.5268 44.0227Z" fill="white"/>
<path d="M129.929 48.6998C127.402 48.6998 125.252 47.8934 123.478 46.2806C121.704 44.7215 120.145 42.7593 118.801 40.3939C117.51 37.9747 116.274 35.5555 115.091 33.1363C114.715 33.5126 114.177 34.1308 113.478 34.991C112.779 35.8511 112.027 36.8457 111.22 37.9747C110.468 39.0499 109.742 40.1251 109.043 41.2003C108.344 42.2755 107.833 43.1894 107.511 43.942C107.457 44.1571 107.296 44.2646 107.027 44.2646C106.597 44.2646 106.382 44.0764 106.382 43.7001C106.382 43.5388 106.409 43.4313 106.463 43.3775C107.968 40.0982 110.656 36.0931 114.527 31.3622C112.806 26.5775 110.763 24.1852 108.398 24.1852C107.753 24.1852 107.269 24.0508 106.946 23.782C106.624 23.5132 106.463 23.2175 106.463 22.895C106.463 22.5187 106.651 22.1961 107.027 21.9273C107.403 21.6047 107.941 21.4435 108.64 21.4435C110.737 21.4435 112.403 22.223 113.64 23.782C114.876 25.2873 115.844 27.0076 116.543 28.943C118.048 27.0614 119.311 25.4486 120.333 24.1046C121.408 22.7068 122.268 21.4703 122.913 20.3951C123.128 20.0188 123.397 19.8307 123.72 19.8307C124.257 19.8307 124.526 20.2339 124.526 21.0403C124.526 21.3628 124.418 21.7123 124.203 22.0886C122.752 24.3465 120.413 27.2495 117.188 30.7977C117.672 31.9267 118.317 33.3513 119.123 35.0716C119.983 36.7919 120.924 38.5391 121.945 40.3132C122.967 42.0335 124.069 43.5388 125.252 44.8291C126.434 46.1193 127.617 46.8988 128.8 47.1676C129.714 47.3827 130.574 47.4902 131.38 47.4902C131.918 47.4902 132.375 47.4095 132.751 47.2483C133.504 46.8719 134.015 46.3881 134.283 45.7967C134.391 45.5279 134.579 45.3935 134.848 45.3935C135.009 45.3935 135.144 45.4473 135.251 45.5548C135.359 45.7161 135.359 45.9311 135.251 46.1999V46.1193C135.036 46.5494 134.767 46.9526 134.445 47.3289C134.122 47.759 133.611 48.0815 132.913 48.2966C131.73 48.5654 130.735 48.6998 129.929 48.6998Z" fill="white"/>
<path d="M132.02 40.9583C131.213 40.9583 130.407 40.7702 129.601 40.3939C127.88 39.4262 127.02 37.9209 127.02 35.878C127.02 33.6739 127.907 31.2815 129.681 28.7011L130.971 27.0076L132.181 25.3142C133.041 24.1315 133.471 23.0294 133.471 22.0079C133.418 20.5027 132.692 19.75 131.294 19.75C131.133 19.75 131.025 19.7769 130.971 19.8307C129.735 19.9919 129.117 20.9059 129.117 22.5724C129.117 23.0563 129.197 23.5401 129.359 24.0239V24.1046C129.305 24.1583 129.278 24.2121 129.278 24.2659L129.117 24.4271H128.955C128.203 24.1583 127.827 23.4326 127.827 22.2499C127.827 21.1209 128.095 20.207 128.633 19.5081C129.278 18.7017 130.084 18.2985 131.052 18.2985C133.686 18.2985 135.003 19.6425 135.003 22.3305C135.003 23.1907 134.842 24.1046 134.52 25.0723C134.09 25.8249 133.525 26.8195 132.826 28.0559C132.181 29.2387 131.482 30.6902 130.73 32.4105C130.461 33.0019 130.273 33.5932 130.165 34.1846C130.058 34.7222 130.004 35.2329 130.004 35.7167C130.004 38.0284 131.025 39.1843 133.068 39.1843C134.842 39.1843 136.482 38.2972 137.987 36.5231C138.525 35.9318 138.982 35.3404 139.358 34.7491C139.788 34.1039 140.164 33.4319 140.487 32.7331C141.132 31.3353 141.455 30.1257 141.455 29.1043C140.595 28.6204 140.164 27.5721 140.164 25.9593C140.164 24.6691 140.568 23.9164 141.374 23.7014C141.428 23.6476 141.589 23.6207 141.858 23.6207C142.342 23.6207 142.691 23.8627 142.906 24.3465C143.175 24.8841 143.309 25.7443 143.309 26.927V27.7334C143.309 27.7871 143.309 27.8947 143.309 28.0559C143.309 28.2172 143.283 28.3785 143.229 28.5398C143.605 28.9161 144.17 29.1043 144.922 29.1043H145.487C146.024 29.1043 146.481 29.0236 146.858 28.8623L147.422 28.7011C147.691 28.7011 147.825 28.8086 147.825 29.0236C147.825 29.3462 147.61 29.5881 147.18 29.7494C146.374 30.0719 145.54 30.2332 144.68 30.2332C144.411 30.2332 144.143 30.2332 143.874 30.2332C143.605 30.1795 143.336 30.1257 143.067 30.0719L141.293 33.6201L140.164 35.6361C139.949 35.9587 139.734 36.2812 139.519 36.6038C139.358 36.9263 139.17 37.222 138.955 37.4908C138.31 38.4047 137.315 39.2111 135.971 39.91C135.272 40.2326 134.6 40.5014 133.955 40.7164C133.31 40.8777 132.665 40.9583 132.02 40.9583Z" fill="white"/>
<path d="M166.293 42.0067C163.981 42.0067 162.422 40.5551 161.616 37.6521C161.508 37.1145 161.401 36.6038 161.293 36.1199C161.24 35.5823 161.213 35.0447 161.213 34.5071C161.213 32.3567 161.67 30.287 162.584 28.2979C163.498 26.255 164.788 24.5884 166.454 23.2982C168.121 21.9542 170.029 21.2822 172.18 21.2822H172.825C172.932 21.3359 173.121 21.3628 173.389 21.3628C175.755 21.7929 176.938 23.11 176.938 25.3142C176.938 25.7443 176.749 25.9593 176.373 25.9593C175.943 25.9593 175.728 25.7443 175.728 25.3142C175.62 24.7228 175.325 24.3196 174.841 24.1046C174.411 23.8895 173.819 23.782 173.067 23.782C172.744 23.782 172.529 23.8089 172.422 23.8627C170.594 24.1315 169.062 24.9379 167.825 26.2819C166.589 27.6259 165.675 29.2387 165.083 31.1203C164.492 32.9481 164.196 34.7491 164.196 36.5231C164.196 37.4371 164.411 38.3779 164.842 39.3455C165.272 40.3132 166.051 40.7971 167.18 40.7971C167.933 40.7971 168.658 40.5014 169.357 39.91C170.056 39.2649 170.648 38.4854 171.131 37.5715C171.723 36.4425 172.126 35.206 172.341 33.862C172.556 32.518 172.664 30.9052 172.664 29.0236C172.664 28.3247 173.094 27.9753 173.954 27.9753C174.438 27.9753 174.895 28.1097 175.325 28.3785C175.701 28.6473 175.916 28.9699 175.97 29.3462C175.97 29.615 175.97 29.9107 175.97 30.2332C175.97 30.502 175.943 30.7708 175.889 31.0396C175.835 31.3084 175.809 31.6041 175.809 31.9267C175.809 32.2492 175.809 32.5449 175.809 32.8137C175.809 34.6415 175.997 36.0393 176.373 37.007C176.696 37.8671 177.206 38.2972 177.905 38.2972C178.443 38.2972 178.954 38.0553 179.437 37.5715C179.814 37.1951 180.298 36.6038 180.889 35.7974C181.48 34.991 182.045 34.1577 182.582 33.2975C183.12 32.4374 183.496 31.7654 183.711 31.2815C183.873 31.0127 184.034 30.8783 184.195 30.8783C184.303 30.8783 184.383 30.959 184.437 31.1203C184.545 31.2278 184.545 31.3891 184.437 31.6041C183.846 32.8943 183.174 34.2115 182.421 35.5555C181.722 36.8457 180.889 38.0015 179.921 39.023C179.545 39.3455 179.142 39.6412 178.712 39.91C178.282 40.1251 177.771 40.2326 177.179 40.2326C176.696 40.2326 176.212 40.1519 175.728 39.9907C175.298 39.7756 174.975 39.4262 174.76 38.9423C174.384 38.2435 174.115 37.4639 173.954 36.6038C173.793 35.7436 173.739 34.9103 173.793 34.1039C173.685 33.8351 173.604 33.7007 173.551 33.7007C173.443 33.7007 173.389 33.8083 173.389 34.0233C173.121 36.4963 172.26 38.4585 170.809 39.91C169.411 41.3078 167.906 42.0067 166.293 42.0067Z" fill="white"/>
<path d="M183.192 40.5551C182.278 40.5551 181.821 39.9638 181.821 38.7811C181.821 38.4585 181.848 38.2703 181.901 38.2166L182.627 34.4265C182.735 33.8351 182.842 33.2169 182.95 32.5718C183.057 31.9267 183.165 31.3084 183.272 30.7171C183.541 29.3193 183.783 27.9753 183.998 26.6851C184.213 25.3948 184.321 24.1852 184.321 23.0563V22.895C184.321 22.5187 184.428 22.223 184.643 22.0079C184.858 21.7929 185.1 21.6854 185.369 21.6854C185.799 21.6854 186.041 21.9542 186.095 22.4918C186.148 22.7606 186.175 23.0563 186.175 23.3788C186.229 23.6476 186.256 23.9702 186.256 24.3465C186.256 24.7228 186.229 25.1798 186.175 25.7174C186.175 26.2012 186.148 26.8195 186.095 27.5721C186.74 26.0131 187.304 24.8303 187.788 24.0239C188.326 23.2175 188.917 22.4918 189.562 21.8467C191.121 20.1263 192.68 19.2662 194.239 19.2662C195.852 19.3737 197.008 20.0188 197.707 21.2015C198.298 22.1155 198.594 23.2175 198.594 24.5078C198.594 26.2281 197.787 28.1366 196.175 30.2332C195.207 31.5235 194.508 32.6524 194.078 33.6201C193.648 34.5878 193.433 35.3673 193.433 35.9587C193.433 37.4102 193.836 38.3779 194.642 38.8617C194.857 38.9155 195.046 38.9961 195.207 39.1036C195.368 39.1574 195.556 39.1843 195.771 39.1843C196.524 39.1843 197.25 38.9423 197.949 38.4585C198.701 37.9209 199.346 37.3833 199.884 36.8457C200.475 36.2543 201.12 35.5017 201.819 34.5878C202.572 33.6201 203.244 32.4643 203.835 31.1203C203.997 30.7977 204.158 30.6364 204.319 30.6364C204.642 30.6364 204.722 30.9321 204.561 31.5235C203.97 32.9212 203.271 34.1577 202.465 35.2329C201.712 36.3081 201.013 37.1951 200.368 37.894C199.777 38.5391 199.078 39.1305 198.271 39.6681C197.465 40.1519 196.524 40.3939 195.449 40.3939C194.051 40.3939 192.895 39.9907 191.981 39.1843C191.121 38.3779 190.691 37.222 190.691 35.7167C190.691 34.319 190.987 33.0019 191.578 31.7654C192.223 30.5289 193.003 29.3999 193.917 28.3785C195.637 26.4969 196.497 24.7766 196.497 23.2175C196.497 21.6047 195.744 20.7983 194.239 20.7983C193.164 20.7983 192.116 21.2284 191.094 22.0886C190.073 22.9487 189.051 24.1583 188.03 25.7174C187.439 26.6851 186.955 27.6259 186.578 28.5398C186.202 29.3999 185.906 30.2332 185.691 31.0396L185.208 36.2812C184.939 38.7542 184.562 40.0982 184.079 40.3132C183.756 40.4745 183.46 40.5551 183.192 40.5551ZM188.675 16.3631C188.406 16.3631 188.272 16.1481 188.272 15.718C188.272 14.4815 188.594 13.5407 189.24 12.8956C189.885 12.2505 190.745 11.8473 191.82 11.686C192.68 11.5785 193.46 11.7129 194.159 12.0892C194.857 12.4655 195.476 12.8419 196.013 13.2182C196.551 13.5945 196.981 13.7827 197.304 13.7827C198.164 13.7827 198.809 13.6751 199.239 13.4601C199.669 13.1913 199.911 12.7075 199.965 12.0086C200.072 11.4172 200.26 11.1215 200.529 11.1215C200.798 11.1215 200.932 11.3635 200.932 11.8473C200.932 13.3526 200.583 14.4815 199.884 15.2342C199.239 15.9331 198.352 16.2825 197.223 16.2825C196.363 16.2825 195.637 16.0943 195.046 15.718C194.508 15.3417 193.997 14.9654 193.513 14.5891C193.03 14.2127 192.411 14.0246 191.659 14.0246C191.229 14.0246 190.718 14.1859 190.127 14.5084C189.589 14.7772 189.266 15.1804 189.159 15.718C189.159 16.1481 188.998 16.3631 188.675 16.3631Z" fill="white"/>
<path d="M210.934 39.1843C208.837 39.1843 207.063 38.6198 205.611 37.4908C204.052 36.2543 203.273 34.6953 203.273 32.8137C203.273 31.0396 203.649 29.5343 204.402 28.2979C205.101 27.1689 206.149 26.3894 207.547 25.9593C207.332 25.3679 207.224 24.8572 207.224 24.4271C207.224 23.4595 207.6 22.5187 208.353 21.6047C209.16 20.7446 210.154 20.1532 211.337 19.8307C211.606 19.7769 211.874 19.75 212.143 19.75C212.412 19.6963 212.681 19.6694 212.95 19.6694C215.1 19.6694 216.982 20.6371 218.594 22.5724C220.153 24.454 220.933 26.5775 220.933 28.943C220.933 31.7385 219.938 34.1577 217.949 36.2006C216.014 38.1897 213.675 39.1843 210.934 39.1843ZM210.934 37.9747C213.03 37.9209 214.831 37.007 216.336 35.2329C217.788 33.5126 218.514 31.5503 218.514 29.3462C218.514 27.4108 218.057 25.7711 217.143 24.4271C216.121 22.9219 214.777 22.1692 213.111 22.1692C211.928 22.1692 210.934 22.5724 210.127 23.3788C209.267 24.239 208.837 25.3948 208.837 26.8463C208.837 27.599 209.052 28.271 209.482 28.8623C209.966 29.6687 210.611 30.0719 211.417 30.0719H211.579C212.17 30.0719 212.815 29.7494 213.514 29.1043L213.675 29.0236L213.756 29.1043C213.756 29.2655 213.702 29.3999 213.595 29.5075C212.788 30.5827 211.901 31.1203 210.934 31.1203C209.375 31.1203 208.111 30.0182 207.144 27.814C205.907 28.6204 205.289 29.9375 205.289 31.7654C205.289 33.3782 205.746 34.7759 206.66 35.9587C207.681 37.3027 209.106 37.9747 210.934 37.9747Z" fill="white"/>
<path d="M229.214 44.0227C227.817 44.0227 226.661 43.5926 225.747 42.7324C224.887 41.8723 224.457 40.7433 224.457 39.3455C224.457 37.9478 224.806 36.7113 225.505 35.6361C226.258 34.5609 227.252 34.0233 228.489 34.0233C228.919 34.0233 229.134 34.2115 229.134 34.5878C229.134 34.8566 228.865 34.991 228.327 34.991C227.575 34.991 226.956 35.4479 226.473 36.3619C225.989 37.2758 225.747 38.0822 225.747 38.7811C225.747 39.695 226.096 40.4207 226.795 40.9583C227.494 41.5497 228.274 41.8454 229.134 41.8454C230.908 41.8454 232.144 41.2809 232.843 40.1519C233.542 38.9692 233.891 37.5715 233.891 35.9587C233.891 35.0985 233.811 34.2383 233.65 33.3782C233.542 32.518 233.354 31.6579 233.085 30.7977C232.924 30.1526 232.601 29.3999 232.117 28.5398C231.634 27.6259 231.096 26.7388 230.505 25.8787C229.967 25.0185 229.483 24.3734 229.053 23.9433C228.408 25.5023 227.736 27.0883 227.037 28.7011C226.392 30.2601 225.693 31.7385 224.94 33.1363C224.887 33.2975 224.752 33.3782 224.537 33.3782C224.107 33.3782 223.973 33.1631 224.134 32.7331C224.349 32.3567 224.537 31.9804 224.698 31.6041C224.913 31.174 225.155 30.6633 225.424 30.0719L227.198 26.2819C227.467 25.6905 227.709 25.0991 227.924 24.5078C228.193 23.9164 228.435 23.3519 228.65 22.8143C227.79 21.7391 227.36 20.3951 227.36 18.7823C227.36 18.0835 227.494 17.4921 227.763 17.0083C228.085 16.4707 228.596 16.2019 229.295 16.2019C229.671 16.2019 230.048 16.4438 230.424 16.9276C230.854 17.4652 230.988 18.3523 230.827 19.5887C230.773 19.8575 230.639 20.3414 230.424 21.0403C230.263 21.6854 230.128 22.1423 230.021 22.4111C230.021 22.6262 230.236 23.0831 230.666 23.782C231.15 24.4271 231.66 25.0991 232.198 25.798C232.736 26.4969 233.112 26.9807 233.327 27.2495C234.241 28.486 234.994 29.9375 235.585 31.6041C236.176 33.2169 236.472 34.8028 236.472 36.3619C236.472 38.351 235.934 40.1251 234.859 41.6841C233.784 43.2431 231.902 44.0227 229.214 44.0227Z" fill="white"/>
</svg>
